External Loads File
version=1
nRows=76
nColumns=13
Range=1.000000e-02-10 seconds
endheader
time 	forceRightX 	forceRightY 	forceRightZ 	pointRightX 	pointRightY 	pointRightZ 	forceLeftX 	forceLeftY 	forceLeftZ 	pointLeftX 	pointLeftY 	pointLeftZ 		
5.010000 20.639645 205.413032 -2.911799 0.422242 0.462650 -0.097276 -1604.509510 3413.049092 -71.670830 0.263550 0.141367 -0.335446
5.020000 15.289626 203.034233 -2.939201 0.432295 0.457445 -0.097262 -1390.165321 3505.935715 -70.535783 0.253167 0.147069 -0.335372
5.030000 -1.968119 201.497108 -3.121952 0.441878 0.451268 -0.097280 -1390.856767 3505.753833 -70.541256 0.243263 0.153509 -0.335311
5.040000 13.344174 200.099387 -2.917338 0.450817 0.444202 -0.097282 -822.085851 3681.038189 -66.434615 0.233965 0.160634 -0.335305
5.050000 12.619799 200.063944 -2.925456 0.459345 0.436393 -0.096946 -545.641474 3732.108483 -63.913898 0.225274 0.168543 -0.335262
5.060000 10.098616 200.699189 -2.965375 0.467074 0.427828 -0.096908 -307.931605 3759.222657 -61.488038 0.217302 0.177080 -0.335184
5.070000 13.327573 201.122278 -2.933266 0.474213 0.418429 -0.096865 40.273916 3771.572343 -57.513718 0.209883 0.186326 -0.335091
5.080000 10.332474 201.905796 -2.981133 0.480776 0.408332 -0.096856 277.967017 3761.488289 -54.516062 0.203367 0.195807 -0.335093
5.090000 10.158681 202.162734 -2.987162 0.486630 0.397735 -0.096792 571.075943 3728.185837 -50.498655 0.197677 0.205896 -0.335105
5.100000 6.331562 202.161959 -3.032919 0.491708 0.386706 -0.096752 796.509812 3686.555334 -47.162520 0.193008 0.216393 -0.335170
5.110000 8.161639 201.999334 -3.008532 0.496041 0.375182 -0.096695 1120.952402 3601.126815 -41.968850 0.189245 0.227047 -0.335152
5.120000 6.436453 202.857856 -3.042365 0.499616 0.363215 -0.096366 1374.806598 3512.008394 -37.562614 0.186375 0.238044 -0.335122
5.130000 4.605759 205.406737 -3.103453 0.502536 0.350794 -0.095983 1617.034583 3407.186090 -33.053938 0.184496 0.249420 -0.335149
5.140000 1.892644 210.110378 -3.208227 0.504434 0.338177 -0.095615 1831.685349 3296.660251 -28.787357 0.183526 0.260949 -0.335173
5.150000 5.163637 216.916053 -3.273759 0.505549 0.325375 -0.095605 2119.596225 3119.214334 -22.615624 0.183456 0.272254 -0.335227
5.160000 5.574701 225.812633 -3.405646 0.505705 0.312391 -0.096023 2346.021341 2952.576228 -17.345397 0.184174 0.283748 -0.335247
5.170000 4.846433 236.963933 -3.585829 0.504953 0.299444 -0.095694 2545.099415 2782.739641 -12.353032 0.185737 0.295391 -0.335307
5.180000 2.828507 250.323826 -3.815396 0.503359 0.286464 -0.095525 2720.479743 2611.465115 -7.621959 0.188042 0.306867 -0.335296
5.190000 3.229730 265.713565 -4.047245 0.500957 0.273593 -0.095312 2909.828962 2398.536834 -2.083323 0.190895 0.318515 -0.335187
5.200000 5.377997 283.179557 -4.290128 0.497816 0.260744 -0.095410 3096.206429 2152.370056 3.930881 0.194705 0.329982 -0.335155
5.210000 5.293744 302.922373 -4.594720 0.493709 0.248232 -0.095480 3246.113642 1918.632943 9.317804 0.199423 0.341613 -0.335328
5.220000 2.460148 325.214333 -4.971390 0.488762 0.236004 -0.095562 3365.126970 1701.046913 14.086909 0.204641 0.352893 -0.335278
5.230000 4.873863 350.408480 -5.329934 0.483008 0.224067 -0.095770 3493.443631 1418.716932 19.962840 0.210593 0.364041 -0.335199
5.240000 5.091393 378.780420 -5.763607 0.476440 0.212679 -0.095825 3590.032254 1152.334584 25.214105 0.217317 0.375060 -0.335206
5.250000 3.164045 409.707735 -6.262225 0.469127 0.201482 -0.095788 3660.197742 904.773228 29.859964 0.224625 0.385782 -0.335093
5.260000 3.906805 441.757550 -6.746171 0.461069 0.191076 -0.095868 3715.771492 638.722776 34.615626 0.232633 0.396254 -0.335006
5.270000 10.670787 472.886947 -7.143956 0.452335 0.181337 -0.095781 3755.332420 334.041867 39.773808 0.241265 0.405979 -0.334929
5.280000 17.747301 500.964444 -7.491074 0.442996 0.172265 -0.095727 3769.789556 45.154287 44.388918 0.250361 0.415272 -0.334842
5.290000 21.366407 523.950278 -7.801245 0.433074 0.163905 -0.095679 3764.490633 -202.852279 48.139137 0.260116 0.423908 -0.334817
5.300000 28.209731 539.966229 -7.965682 0.422726 0.156244 -0.095611 3741.174542 -464.284706 51.880337 0.270348 0.431889 -0.334773
5.310000 42.814164 547.297855 -7.903765 0.411927 0.149579 -0.095465 3689.990310 -771.580643 55.993501 0.280791 0.439049 -0.334916
5.320000 54.762281 546.074223 -7.742060 0.400646 0.143782 -0.095348 3618.942731 -1055.506728 59.509759 0.291777 0.445612 -0.334938
5.330000 60.269071 537.290659 -7.541139 0.389240 0.138886 -0.095230 3540.471217 -1294.441134 62.245399 0.303116 0.451305 -0.335062
5.340000 69.946516 520.777912 -7.171490 0.377459 0.134895 -0.094997 3431.793611 -1559.961473 65.028612 0.314508 0.456058 -0.335133
5.350000 83.080712 497.646742 -6.658730 0.365671 0.131919 -0.094881 3284.683555 -1849.949002 67.728439 0.325865 0.460059 -0.335047
5.360000 102.509813 468.406522 -5.976749 0.353853 0.129731 -0.094780 3073.963389 -2182.591485 70.323451 0.337492 0.463230 -0.335198
5.370000 103.207127 439.885301 -5.529840 0.341984 0.128594 -0.094747 2913.522151 -2392.872005 71.638197 0.349370 0.465581 -0.335582
5.380000 101.014493 410.704382 -5.107348 0.330303 0.128362 -0.094880 2748.346600 -2581.137786 72.557805 0.361066 0.466886 -0.335544
5.390000 98.526518 381.225017 -4.683798 0.318500 0.128903 -0.094783 2568.064655 -2760.731538 73.163405 0.372369 0.467143 -0.335585
5.400000 102.036004 350.180233 -4.164453 0.306756 0.130611 -0.094689 2321.732329 -2970.973744 73.450383 0.383693 0.466500 -0.335652
5.410000 97.484392 321.991846 -3.785435 0.295171 0.133200 -0.094587 2125.001603 -3114.740021 73.308352 0.394763 0.464894 -0.335683
5.420000 95.006307 294.143911 -3.386853 0.283901 0.136431 -0.094513 1896.971560 -3258.657976 72.794342 0.405571 0.462324 -0.335675
5.430000 91.858396 267.491777 -3.014670 0.272834 0.140818 -0.094437 1660.585535 -3385.277577 71.914406 0.416239 0.458985 -0.335542
5.440000 86.695431 242.556311 -2.692983 0.262253 0.146078 -0.094408 1434.573323 -3487.139355 70.777832 0.426409 0.454522 -0.335477
5.450000 84.913059 217.212845 -2.324593 0.252092 0.152090 -0.094389 1137.810403 -3595.055017 68.888233 0.436116 0.449199 -0.335440
5.460000 79.921606 193.860869 -2.025203 0.242498 0.158959 -0.094368 866.171857 -3670.097083 66.793603 0.445365 0.442816 -0.335520
5.470000 73.107461 172.327115 -1.775570 0.233539 0.166549 -0.094389 607.512798 -3721.767972 64.494817 0.454045 0.435607 -0.335519
5.480000 65.866470 152.896861 -1.563387 0.225185 0.174874 -0.094361 345.815222 -3755.218574 61.879521 0.462084 0.427629 -0.335642
5.490000 60.634563 135.336593 -1.355933 0.217595 0.183765 -0.094354 32.483188 -3771.032200 58.375521 0.469421 0.418832 -0.335759
5.500000 54.052920 121.262444 -1.218225 0.210766 0.193145 -0.094259 -232.766538 -3764.033728 55.095760 0.476040 0.409358 -0.335882
5.510000 47.753898 109.355780 -1.110467 0.204636 0.203038 -0.094225 -489.666225 -3739.335334 51.643687 0.481652 0.399322 -0.335739
5.520000 42.066499 98.691795 -1.014504 0.199394 0.213474 -0.094259 -759.829919 -3693.934867 47.714653 0.487089 0.388490 -0.335870
5.530000 36.016293 89.236293 -0.941462 0.194955 0.224316 -0.094155 -1013.458591 -3632.530136 43.737266 0.491602 0.377178 -0.336259
5.540000 30.938604 80.405204 -0.866391 0.191418 0.235403 -0.094075 -1310.506096 -3536.188896 38.703412 0.495206 0.365547 -0.336194
5.550000 24.776411 73.388856 -0.832195 0.188717 0.246637 -0.094086 -1547.978329 -3438.851240 34.366702 0.497903 0.353566 -0.335528
5.560000 19.114673 67.706513 -0.812527 0.186906 0.258162 -0.094118 -1786.542541 -3321.195194 29.704497 0.499905 0.341444 -0.335360
5.570000 13.963509 63.272288 -0.805945 0.185979 0.269935 -0.094176 -2022.905600 -3182.790948 24.749572 0.501006 0.328555 -0.335612
5.580000 8.738277 59.918701 -0.816866 0.185861 0.281703 -0.094148 -2234.630245 -3037.920873 19.989875 0.501378 0.315867 -0.335691
5.590000 4.805318 57.447993 -0.825909 0.186654 0.293509 -0.094120 -2480.972578 -2840.267877 14.004540 0.500840 0.302928 -0.335903
5.600000 0.725258 56.099166 -0.853962 0.188253 0.305375 -0.094219 -2677.049924 -2656.202163 8.829261 0.499317 0.290079 -0.335983
5.610000 -2.500016 55.658616 -0.885759 0.190706 0.317115 -0.094147 -2859.059638 -2459.078458 3.621425 0.497043 0.277119 -0.336031
5.620000 -4.723173 55.903205 -0.916107 0.193865 0.328804 -0.094279 -3022.285088 -2255.252792 -1.464825 0.493858 0.264266 -0.336115
5.630000 -6.133993 56.680598 -0.944933 0.197943 0.340318 -0.094272 -3168.301052 -2044.877551 -6.445977 0.489815 0.251715 -0.336105
5.640000 -5.934102 58.011146 -0.963002 0.202798 0.351732 -0.094384 -3331.399117 -1766.656497 -12.674678 0.485001 0.239361 -0.336118
5.650000 -10.798011 59.247073 -1.040175 0.208386 0.362933 -0.094461 -3330.796752 -1767.958996 -12.647446 0.479328 0.227262 -0.336138
5.660000 -16.484715 60.825615 -1.132456 0.214771 0.373740 -0.094613 -3332.568184 -1764.914142 -12.715451 0.473003 0.215593 -0.336245
5.670000 -9.757917 66.227949 -1.135081 0.221828 0.384527 -0.094692 -3626.063252 -1035.798089 -27.436981 0.465839 0.204370 -0.336093
5.680000 -9.930089 71.258124 -1.214489 0.229619 0.394794 -0.094835 -3704.490521 -706.079511 -33.444973 0.458057 0.193602 -0.335965
5.690000 -10.913667 77.101033 -1.316098 0.238021 0.404756 -0.094979 -3742.847142 -461.869154 -37.658899 0.449735 0.183714 -0.336094
5.700000 -9.982336 84.067267 -1.412080 0.247011 0.414416 -0.095212 -3766.310562 -193.194400 -42.070904 0.440698 0.174236 -0.335907
5.710000 -7.764958 92.009117 -1.507683 0.256530 0.423461 -0.095389 -3770.602497 68.597237 -46.147794 0.431229 0.165569 -0.335794
5.720000 -5.043141 101.118432 -1.615207 0.266248 0.431777 -0.096077 -3757.968684 314.964395 -49.785086 0.421439 0.157696 -0.336562
5.730000 0.360538 111.109835 -1.704221 0.276868 0.439633 -0.095673 -3716.465176 639.228285 -54.274938 0.411043 0.150588 -0.336037
5.740000 4.477636 121.845976 -1.820074 0.287914 0.446677 -0.095812 -3659.064120 911.688511 -57.778086 0.400279 0.144231 -0.335837
5.750000 7.230483 133.176015 -1.961374 0.299034 0.453078 -0.095904 -3592.017736 1147.460630 -60.601733 0.389321 0.138989 -0.335663
5.760000 10.240416 144.561694 -2.100455 0.310181 0.458642 -0.096015 -3503.238062 1395.133194 -63.348463 0.378024 0.134519 -0.335602
